<svg width="24" height="24" viewBox="0 0 24 24" fill="none" xmlns="http://www.w3.org/2000/svg">
<path d="M20.6013 3.41234C20.475 3.28578 20.325 3.18536 20.1598 3.11685C19.9946 3.04834 19.8176 3.01307 19.6388 3.01307C19.46 3.01307 19.2829 3.04834 19.1178 3.11685C18.9526 3.18536 18.8026 3.28578 18.6763 3.41234L12 10.0749L5.32375 3.39869C5.19735 3.27229 5.04729 3.17202 4.88214 3.10362C4.71698 3.03521 4.53998 3 4.36122 3C4.18246 3 4.00545 3.03521 3.8403 3.10362C3.67515 3.17202 3.52509 3.27229 3.39869 3.39869C3.27229 3.52509 3.17202 3.67515 3.10362 3.8403C3.03521 4.00545 3 4.18246 3 4.36122C3 4.53998 3.03521 4.71698 3.10362 4.88214C3.17202 5.04729 3.27229 5.19735 3.39869 5.32375L10.0749 12L3.39869 18.6763C3.27229 18.8027 3.17202 18.9527 3.10362 19.1179C3.03521 19.283 3 19.46 3 19.6388C3 19.8175 3.03521 19.9945 3.10362 20.1597C3.17202 20.3248 3.27229 20.4749 3.39869 20.6013C3.52509 20.7277 3.67515 20.828 3.8403 20.8964C4.00545 20.9648 4.18246 21 4.36122 21C4.53998 21 4.71698 20.9648 4.88214 20.8964C5.04729 20.828 5.19735 20.7277 5.32375 20.6013L12 13.9251L18.6763 20.6013C18.8027 20.7277 18.9527 20.828 19.1179 20.8964C19.283 20.9648 19.46 21 19.6388 21C19.8175 21 19.9945 20.9648 20.1597 20.8964C20.3248 20.828 20.4749 20.7277 20.6013 20.6013C20.7277 20.4749 20.828 20.3248 20.8964 20.1597C20.9648 19.9945 21 19.8175 21 19.6388C21 19.46 20.9648 19.283 20.8964 19.1179C20.828 18.9527 20.7277 18.8027 20.6013 18.6763L13.9251 12L20.6013 5.32375C21.1201 4.80494 21.1201 3.93115 20.6013 3.41234Z" fill="#B5BBDB"/>
</svg>
