<svg width="24" height="24" viewBox="0 0 24 24" fill="none" xmlns="http://www.w3.org/2000/svg">
<path d="M11.9984 13.476C13.3472 13.476 14.5939 13.0958 15.5912 12.45C16.3637 11.9555 17.3692 12.0372 18.0477 12.6544C19.932 14.3629 21.0028 16.7867 20.9988 19.3331V20.4244C20.9988 21.5525 20.0832 22.464 18.9551 22.464H5.04176C3.91366 22.464 2.99809 21.5525 2.99809 20.4244V19.3331C2.98992 16.7908 4.0608 14.3629 5.94507 12.6585C6.62357 12.0413 7.63314 11.9596 8.40156 12.4541C9.40296 13.0958 10.6455 13.476 11.9984 13.476Z" fill="#B5BBDB"/>
<path d="M11.9976 11.6569C14.7923 11.6569 17.0578 9.39138 17.0578 6.59675C17.0578 3.80212 14.7923 1.53662 11.9976 1.53662C9.203 1.53662 6.9375 3.80212 6.9375 6.59675C6.9375 9.39138 9.203 11.6569 11.9976 11.6569Z" fill="#B5BBDB"/>
</svg>
