<svg width="114" height="48" viewBox="0 0 114 48" fill="none" xmlns="http://www.w3.org/2000/svg">
<path fill-rule="evenodd" clip-rule="evenodd" d="M24.0227 16.7204C24.0227 20.8272 22.6051 26.8904 19.9734 27.0851C13.7627 27.547 6.00516 13.7695 6.00516 9.09392C6.00516 3.14018 8.16323 1.47817 9.38173 0.539758L9.44741 0.489137C10.2216 -0.109686 12.5366 -0.0212227 14.4882 0.0533552C15.0872 0.0762454 15.652 0.0978275 16.1275 0.0978275C21.0196 0.0978275 24.0227 12.6137 24.0227 16.7204ZM49.6132 4.39719V10.2719C49.6132 10.5119 49.558 10.7459 49.4599 10.9698C48.711 12.6833 46.4474 10.7368 46.1501 8.89826C45.9233 7.49572 45.5225 5.99214 45.1625 4.64145L45.1625 4.64139C44.6068 2.55681 44.1482 0.836382 44.5761 0.413497C45.7162 -0.713031 49.6132 0.413497 49.6132 4.39719ZM0 10.272V4.39733C0 0.413637 3.89704 -0.712892 5.03612 0.413637C5.46385 0.836372 5.00573 2.55573 4.45055 4.63931C4.0905 5.99059 3.68963 7.49507 3.46311 8.8984C3.16583 10.737 0.902287 12.6834 0.153337 10.9699C0.0552846 10.746 0 10.5121 0 10.272ZM60.0234 17.3659C59.8471 17.3659 59.6949 17.3114 59.5676 17.2035C59.4393 17.0795 59.3746 16.9252 59.3746 16.7386V1.73467C59.3746 1.56423 59.4393 1.41799 59.5676 1.29394C59.6949 1.1699 59.8471 1.10737 60.0234 1.10737H74.629C74.8053 1.10737 74.9576 1.1699 75.0859 1.29394C75.2131 1.41799 75.2778 1.56423 75.2778 1.73467V16.7386C75.2778 16.909 75.2131 17.0563 75.0859 17.1803C74.9576 17.3044 74.8053 17.3659 74.629 17.3659H69.9204C69.7441 17.3659 69.5929 17.3044 69.4646 17.1803C69.3363 17.0563 69.2727 16.909 69.2727 16.7386V6.21759H65.3808V16.7386C65.3808 16.909 65.3162 17.0563 65.1879 17.1803C65.0606 17.3044 64.9083 17.3659 64.732 17.3659H60.0234ZM78.5803 17.3659C78.404 17.3659 78.2517 17.3044 78.1234 17.1803C77.9951 17.0563 77.9315 16.909 77.9315 16.7386V1.73467C77.9315 1.56423 77.9951 1.41799 78.1234 1.29394C78.2517 1.1699 78.404 1.10737 78.5803 1.10737H83.2878C83.4641 1.10737 83.6164 1.1699 83.7447 1.29394C83.873 1.41799 83.9366 1.56423 83.9366 1.73467V8.7722L88.9571 1.64189C89.0698 1.47145 89.2054 1.34034 89.366 1.24755C89.5256 1.15376 89.7186 1.10737 89.9428 1.10737H94.0986C94.2749 1.10737 94.4261 1.1699 94.5544 1.29394C94.6827 1.41799 94.7474 1.56423 94.7474 1.73467V16.7386C94.7474 16.909 94.6827 17.0563 94.5544 17.1803C94.4261 17.3044 94.2749 17.3659 94.0986 17.3659H89.39C89.2137 17.3659 89.0614 17.3044 88.9331 17.1803C88.8059 17.0563 88.7412 16.909 88.7412 16.7386V10.2124L83.7207 16.8314C83.6247 16.9716 83.5048 17.0946 83.3608 17.2035C83.2159 17.3114 83.0083 17.3659 82.736 17.3659H78.5803ZM98.028 17.3659C97.8517 17.3659 97.6994 17.3114 97.5711 17.2035C97.4428 17.0795 97.3791 16.9252 97.3791 16.7386V1.73467C97.3791 1.56423 97.4428 1.41799 97.5711 1.29394C97.6994 1.1699 97.8517 1.10737 98.028 1.10737H102.735C102.912 1.10737 103.064 1.1699 103.192 1.29394C103.321 1.41799 103.384 1.56423 103.384 1.73467V6.61193H103.769L106.699 1.61869C106.78 1.49464 106.892 1.37866 107.036 1.27075C107.196 1.16183 107.404 1.10737 107.66 1.10737H112.969C113.113 1.10737 113.233 1.16183 113.329 1.27075C113.442 1.36353 113.498 1.47951 113.498 1.61869C113.498 1.71148 113.474 1.7972 113.426 1.87385L109.102 8.88818L113.834 16.5994C113.882 16.6609 113.906 16.7466 113.906 16.8546C113.906 16.9947 113.85 17.1188 113.738 17.2267C113.642 17.3195 113.522 17.3659 113.377 17.3659H107.901C107.581 17.3659 107.348 17.2963 107.204 17.1571C107.06 17.0018 106.964 16.8939 106.915 16.8314L103.961 11.7221H103.384V16.7386C103.384 16.909 103.321 17.0563 103.192 17.1803C103.064 17.3044 102.912 17.3659 102.735 17.3659H98.028ZM60.0234 36.3343C59.8471 36.3343 59.6949 36.2799 59.5676 36.1709C59.4393 36.0479 59.3746 35.8926 59.3746 35.707V20.7031C59.3746 20.5327 59.4393 20.3854 59.5676 20.2614C59.6949 20.1373 59.8471 20.0758 60.0234 20.0758H64.732C64.9083 20.0758 65.0606 20.1373 65.1879 20.2614C65.3162 20.3854 65.3808 20.5327 65.3808 20.7031V25.5804H69.2727V20.7031C69.2727 20.5327 69.3363 20.3854 69.4646 20.2614C69.5929 20.1373 69.7441 20.0758 69.9204 20.0758H74.629C74.8053 20.0758 74.9576 20.1373 75.0859 20.2614C75.2131 20.3854 75.2778 20.5327 75.2778 20.7031V35.707C75.2778 35.8775 75.2131 36.0237 75.0859 36.1477C74.9576 36.2718 74.8053 36.3343 74.629 36.3343H69.9204C69.7441 36.3343 69.5929 36.2718 69.4646 36.1477C69.3363 36.0237 69.2727 35.8775 69.2727 35.707V30.6896H65.3808V35.707C65.3808 35.8775 65.3162 36.0237 65.1879 36.1477C65.0606 36.2718 64.9083 36.3343 64.732 36.3343H60.0234ZM78.5803 36.3343C78.404 36.3343 78.2517 36.2718 78.1234 36.1477C77.9951 36.0237 77.9315 35.8775 77.9315 35.707V20.7031C77.9315 20.5327 77.9951 20.3854 78.1234 20.2614C78.2517 20.1373 78.404 20.0758 78.5803 20.0758H83.2878C83.4641 20.0758 83.6164 20.1373 83.7447 20.2614C83.873 20.3854 83.9366 20.5327 83.9366 20.7031V27.7406L88.9571 20.6103C89.0698 20.4399 89.2054 20.3078 89.366 20.215C89.5256 20.1222 89.7186 20.0758 89.9428 20.0758H94.0986C94.2749 20.0758 94.4261 20.1373 94.5544 20.2614C94.6827 20.3854 94.7474 20.5327 94.7474 20.7031V35.707C94.7474 35.8775 94.6827 36.0237 94.5544 36.1477C94.4261 36.2718 94.2749 36.3343 94.0986 36.3343H89.39C89.2137 36.3343 89.0614 36.2718 88.9331 36.1477C88.8059 36.0237 88.7412 35.8775 88.7412 35.707V29.1798L83.7207 35.7998C83.6247 35.939 83.5048 36.063 83.3608 36.1709C83.2159 36.2799 83.0083 36.3343 82.736 36.3343H78.5803ZM98.028 36.3343C97.8517 36.3343 97.6994 36.2799 97.5711 36.1709C97.4428 36.0479 97.3791 35.8926 97.3791 35.707V20.7031C97.3791 20.5327 97.4428 20.3854 97.5711 20.2614C97.6994 20.1373 97.8517 20.0758 98.028 20.0758H102.735C102.912 20.0758 103.064 20.1373 103.192 20.2614C103.321 20.3854 103.384 20.5327 103.384 20.7031V25.5804H103.769L106.699 20.5871C106.78 20.4631 106.892 20.3471 107.036 20.2382C107.196 20.1303 107.404 20.0758 107.66 20.0758H112.969C113.113 20.0758 113.233 20.1303 113.329 20.2382C113.442 20.331 113.498 20.4469 113.498 20.5871C113.498 20.6799 113.474 20.7646 113.426 20.8423L109.102 27.8566L113.834 35.5678C113.882 35.6294 113.906 35.7141 113.906 35.823C113.906 35.9622 113.85 36.0862 113.738 36.1941C113.642 36.2869 113.522 36.3343 113.377 36.3343H107.901C107.581 36.3343 107.348 36.2637 107.204 36.1246C107.06 35.9702 106.964 35.8613 106.915 35.7998L103.961 30.6896H103.384V35.707C103.384 35.8775 103.321 36.0237 103.192 36.1477C103.064 36.2718 102.912 36.3343 102.735 36.3343H98.028ZM62.4382 47.6631C61.8781 47.6631 61.368 47.5875 60.907 47.4362C60.4532 47.2789 60.0839 47.053 59.8013 46.7575C59.5175 46.463 59.3506 46.103 59.3016 45.6784C59.2943 45.6168 59.312 45.5654 59.3538 45.5241C59.4038 45.4827 59.4602 45.4625 59.5248 45.4625H60.907C60.9925 45.4625 61.0561 45.4756 61.0978 45.5039C61.1406 45.5311 61.1834 45.5785 61.2262 45.6471C61.2971 45.8054 61.4243 45.9355 61.609 46.0384C61.7999 46.1413 62.0627 46.1917 62.3955 46.1917C62.8075 46.1917 63.1256 46.0727 63.353 45.8327C63.5867 45.5926 63.7035 45.2538 63.7035 44.814V44.6497H61.6403C61.5631 44.6497 61.4994 44.6224 61.4494 44.568C61.3993 44.5125 61.3753 44.448 61.3753 44.3723V43.5504C61.3753 43.4747 61.3993 43.4092 61.4494 43.3547C61.4994 43.3002 61.5631 43.272 61.6403 43.272H63.7035V43.1278C63.7035 42.6487 63.5898 42.2988 63.3635 42.0799C63.1361 41.854 62.8138 41.74 62.3955 41.74C62.0627 41.74 61.7999 41.7955 61.609 41.9054C61.4243 42.0144 61.3075 42.1445 61.2574 42.2957C61.2147 42.3643 61.1761 42.4117 61.1406 42.44C61.1051 42.4672 61.0446 42.4803 60.9602 42.4803H59.5676C59.5029 42.4803 59.4466 42.4601 59.3965 42.4188C59.3475 42.3714 59.3256 42.3159 59.3329 42.2544C59.3903 41.8086 59.5603 41.4385 59.843 41.144C60.1267 40.8495 60.4918 40.6297 60.9393 40.4854C61.3857 40.3352 61.8854 40.2595 62.4382 40.2595C63.062 40.2595 63.6117 40.3664 64.0863 40.5782C64.5683 40.784 64.9479 41.1027 65.2244 41.5353C65.5081 41.9599 65.6604 42.5085 65.6813 43.1792C65.6886 43.392 65.6917 43.5776 65.6917 43.7349C65.699 43.8862 65.699 44.0395 65.6917 44.1978C65.6917 44.3481 65.6886 44.5307 65.6813 44.7424C65.6604 45.4212 65.5112 45.9769 65.2348 46.4085C64.9584 46.8402 64.5829 47.1589 64.1083 47.3646C63.6326 47.5633 63.0766 47.6631 62.4382 47.6631ZM66.8986 47.5603C66.8203 47.5603 66.7557 47.5361 66.7066 47.4877C66.6566 47.4403 66.6326 47.3777 66.6326 47.3031V40.6196C66.6326 40.5439 66.6566 40.4824 66.7066 40.435C66.7557 40.3866 66.8203 40.3624 66.8986 40.3624H68.2702C68.3485 40.3624 68.4121 40.3866 68.4611 40.435C68.5112 40.4824 68.5362 40.5439 68.5362 40.6196V43.0975H69.184L70.758 40.558C70.7935 40.5036 70.8436 40.4592 70.9072 40.4239C70.9708 40.3836 71.0522 40.3624 71.1523 40.3624H72.6826C72.7546 40.3624 72.8109 40.3866 72.8526 40.435C72.8954 40.4753 72.9173 40.5238 72.9173 40.5782C72.9173 40.6196 72.9027 40.6609 72.8745 40.7023L70.8968 43.8277L73.0664 47.2103C73.0873 47.2375 73.0977 47.2749 73.0977 47.3233C73.0977 47.3919 73.0727 47.4503 73.0237 47.4977C72.9809 47.5391 72.9235 47.5603 72.8526 47.5603H71.2796C71.1659 47.5603 71.0814 47.5361 71.024 47.4877C70.975 47.4403 70.9354 47.3989 70.9072 47.3646L69.2591 44.7424H68.5362V47.3031C68.5362 47.3777 68.5112 47.4403 68.4611 47.4877C68.4121 47.5361 68.3485 47.5603 68.2702 47.5603H66.8986ZM76.8112 47.6631C76.1582 47.6631 75.5918 47.5603 75.1099 47.3545C74.628 47.1488 74.2514 46.8402 73.9823 46.4287C73.7132 46.0102 73.564 45.4898 73.5358 44.8665C73.5285 44.571 73.5254 44.2765 73.5254 43.982C73.5254 43.6875 73.5285 43.389 73.5358 43.0874C73.564 42.4702 73.7132 41.9528 73.9823 41.5353C74.2587 41.1097 74.6374 40.791 75.1203 40.5782C75.6022 40.3664 76.1655 40.2595 76.8112 40.2595C77.4569 40.2595 78.0087 40.3664 78.4906 40.5782C78.9798 40.791 79.3626 41.1097 79.6401 41.5353C79.9155 41.9528 80.0646 42.4702 80.0865 43.0874C80.1001 43.389 80.1074 43.6875 80.1074 43.982C80.1074 44.2765 80.1001 44.571 80.0865 44.8665C80.0573 45.4898 79.9092 46.0102 79.6401 46.4287C79.3699 46.8402 78.9944 47.1488 78.5125 47.3545C78.0306 47.5603 77.4631 47.6631 76.8112 47.6631ZM76.8112 46.1816C77.1867 46.1816 77.4913 46.0727 77.726 45.8528C77.967 45.634 78.0942 45.284 78.1078 44.804C78.1224 44.5024 78.1297 44.218 78.1297 43.9507C78.1297 43.6835 78.1224 43.4061 78.1078 43.1187C78.0942 42.796 78.0306 42.5358 77.9169 42.3371C77.8105 42.1314 77.6613 41.9801 77.4704 41.8843C77.2785 41.7885 77.0594 41.74 76.8112 41.74C76.5629 41.74 76.3533 41.7885 76.1624 41.8843C75.9705 41.9801 75.8182 42.1314 75.7045 42.3371C75.5918 42.5358 75.5282 42.796 75.5136 43.1187C75.5063 43.4061 75.5031 43.6835 75.5031 43.9507C75.5031 44.218 75.5063 44.5024 75.5136 44.804C75.5344 45.284 75.6627 45.634 75.8964 45.8528C76.13 46.0727 76.4357 46.1816 76.8112 46.1816ZM81.1484 45.2154C81.0702 45.2154 81.0066 45.1912 80.9575 45.1438C80.9085 45.0964 80.8824 45.0339 80.8824 44.9583V43.9921C80.8824 43.9165 80.9075 43.8549 80.9575 43.8065C81.0076 43.7581 81.0702 43.7349 81.1484 43.7349H84.477C84.5552 43.7349 84.6188 43.7591 84.6679 43.8065C84.7169 43.8539 84.743 43.9165 84.743 43.9921V44.9583C84.743 45.0339 84.7179 45.0954 84.6679 45.1438C84.6178 45.1922 84.5552 45.2154 84.477 45.2154H81.1484ZM86.0354 47.5603C85.9571 47.5603 85.8935 47.5361 85.8445 47.4877C85.7944 47.4403 85.7694 47.3777 85.7694 47.3031V40.6196C85.7694 40.5439 85.7944 40.4824 85.8445 40.435C85.8935 40.3866 85.9571 40.3624 86.0354 40.3624H91.9373C92.0155 40.3624 92.0791 40.3866 92.1292 40.435C92.1793 40.4834 92.2033 40.5439 92.2033 40.6196V47.3031C92.2033 47.3777 92.1782 47.4403 92.1292 47.4877C92.0802 47.5351 92.0155 47.5603 91.9373 47.5603H90.5656C90.4874 47.5603 90.4237 47.5361 90.3747 47.4877C90.3246 47.4403 90.2996 47.3777 90.2996 47.3031V42.0073H87.673V47.3031C87.673 47.3777 87.648 47.4403 87.599 47.4877C87.55 47.5361 87.4853 47.5603 87.4071 47.5603H86.0354ZM92.9491 47.5603C92.8928 47.5603 92.8396 47.5391 92.7895 47.4977C92.7467 47.4503 92.7259 47.3989 92.7259 47.3434C92.7259 47.3102 92.729 47.2789 92.7363 47.2517L95.2356 40.6508C95.2564 40.5752 95.2992 40.5096 95.3628 40.4552C95.4338 40.3937 95.5297 40.3624 95.6497 40.3624H97.2237C97.3447 40.3624 97.4365 40.3937 97.5002 40.4552C97.5711 40.5096 97.618 40.5752 97.6389 40.6508L100.127 47.2517C100.141 47.2789 100.149 47.3102 100.149 47.3434C100.149 47.3989 100.124 47.4503 100.073 47.4977C100.032 47.5391 99.9786 47.5603 99.9149 47.5603H98.6069C98.5005 47.5603 98.4191 47.5361 98.3618 47.4877C98.3117 47.4332 98.2804 47.3848 98.2658 47.3434L97.8517 46.2956H95.0123L94.6076 47.3434C94.5941 47.3848 94.5617 47.4332 94.5127 47.4877C94.4626 47.5361 94.3781 47.5603 94.2571 47.5603H92.9491ZM95.4484 44.814H97.4261L96.4268 42.1001L95.4484 44.814ZM100.933 47.5603C100.855 47.5603 100.792 47.5361 100.742 47.4877C100.692 47.4403 100.668 47.3777 100.668 47.3031V40.6196C100.668 40.5439 100.692 40.4824 100.742 40.435C100.792 40.3866 100.855 40.3624 100.933 40.3624H103.911C104.499 40.3624 105.009 40.4522 105.442 40.6297C105.882 40.8011 106.222 41.0623 106.463 41.4113C106.711 41.7612 106.835 42.203 106.835 42.7375C106.835 43.272 106.711 43.7006 106.463 44.0435C106.222 44.3864 105.882 44.6396 105.442 44.804C105.009 44.9694 104.499 45.0511 103.911 45.0511H102.646V47.3031C102.646 47.3777 102.617 47.4403 102.56 47.4877C102.511 47.5361 102.447 47.5603 102.368 47.5603H100.933ZM102.613 43.632H103.858C104.162 43.632 104.403 43.5564 104.581 43.4061C104.765 43.2549 104.857 43.0259 104.857 42.7173C104.857 42.4571 104.779 42.2373 104.624 42.0587C104.467 41.8812 104.213 41.7925 103.858 41.7925H102.613V43.632ZM107.801 47.5603C107.723 47.5603 107.659 47.5361 107.609 47.4877C107.559 47.4393 107.535 47.3777 107.535 47.3031V40.6196C107.535 40.5439 107.56 40.4824 107.609 40.435C107.658 40.3876 107.723 40.3624 107.801 40.3624H109.173C109.251 40.3624 109.314 40.3866 109.363 40.435C109.413 40.4824 109.438 40.5439 109.438 40.6196V43.0975H110.087L111.66 40.558C111.696 40.5036 111.746 40.4592 111.809 40.4239C111.873 40.3836 111.954 40.3624 112.055 40.3624H113.586C113.657 40.3624 113.713 40.3866 113.756 40.435C113.798 40.4753 113.82 40.5238 113.82 40.5782C113.82 40.6196 113.805 40.6609 113.777 40.7023L111.799 43.8277L113.969 47.2103C113.99 47.2375 114 47.2749 114 47.3233C114 47.3919 113.975 47.4503 113.926 47.4977C113.883 47.5391 113.827 47.5603 113.756 47.5603H112.182C112.068 47.5603 111.984 47.5361 111.926 47.4877C111.877 47.4403 111.838 47.3989 111.809 47.3646L110.161 44.7424H109.438V47.3031C109.438 47.3777 109.413 47.4403 109.363 47.4877C109.314 47.5361 109.251 47.5603 109.173 47.5603H107.801ZM20.1622 43.742C20.0036 44.3895 17.1601 47.7378 11.7777 47.9314C8.81112 48.0383 5.85913 47.998 3.26388 47.9617H3.20233C1.43323 47.9375 0 46.5447 0 44.8342V39.3872C0 37.9712 0.791717 36.6591 2.10707 36.0338C10.9213 31.8464 23.8913 28.5293 20.1622 43.742ZM37.8679 47.9314C32.4854 47.7378 29.643 44.3895 29.4844 43.742C25.7543 28.5293 38.7243 31.8464 47.5395 36.0338C48.8539 36.6591 49.6456 37.9712 49.6456 39.3872V44.8342C49.6456 46.5447 48.2123 47.9375 46.4432 47.9617H46.3817C43.7875 47.998 40.8345 48.0383 37.8679 47.9314ZM0 13.8239C0 11.4569 13.8921 25.0146 12.2815 28.0271C10.671 31.0395 0 34.9133 0 31.685V13.8239ZM37.364 28.0271C35.7535 25.0146 49.6456 11.4569 49.6456 13.8239V31.685C49.6456 34.9133 38.9746 31.0395 37.364 28.0271ZM26.8913 0.485103C28.0095 1.15779 25.9973 5.22923 25.5624 5.78897C25.1774 6.28516 24.4254 6.36988 23.9747 5.78897C23.619 5.33109 21.7915 1.10434 22.6458 0.485103C23.5001 -0.135143 25.7731 -0.187587 26.8913 0.485103ZM29.6722 27.0851C27.0404 26.8904 25.6239 20.8272 25.6239 16.7204C25.6239 12.6137 28.627 0.0978275 33.5192 0.0978275C33.9943 0.0978275 34.5588 0.0762513 35.1576 0.0533646C37.1089 -0.0212153 39.4242 -0.109711 40.1992 0.489137C40.221 0.505992 40.2432 0.52307 40.2657 0.540395C41.4833 1.47892 43.6404 3.14152 43.6404 9.09392C43.6404 13.7695 35.8828 27.547 29.6722 27.0851Z" fill="url(#paint0_linear_2001_9139)"/>
<defs>
<linearGradient id="paint0_linear_2001_9139" x1="71.5" y1="-41.5" x2="57" y2="48.0003" gradientUnits="userSpaceOnUse">
<stop stop-color="#1B2E3F"/>
<stop offset="1" stop-color="#606468"/>
</linearGradient>
</defs>
</svg>
